<?xml version="1.0" encoding="utf-8"?>
<!-- Generator: Adobe Illustrator 19.0.0, SVG Export Plug-In . SVG Version: 6.00 Build 0)  -->
<svg version="1.1" id="Calque_1" xmlns="http://www.w3.org/2000/svg" xmlns:xlink="http://www.w3.org/1999/xlink" x="0px" y="0px"
	 viewBox="0 0 1417.3 1417.3" style="enable-background:new 0 0 1417.3 1417.3;" xml:space="preserve">
<style type="text/css">
	.st0{clip-path:url(#SVGID_2_);fill:#E56A77;}
</style>
<g>
	<defs>
		<rect id="SVGID_1_" x="469" y="286" width="382.9" height="486.5"/>
	</defs>
	<clipPath id="SVGID_2_">
		<use xlink:href="#SVGID_1_"  style="overflow:visible;"/>
	</clipPath>
	<path class="st0" d="M852.7,598.8c0,124.4-84.4,164.6-167.2,164.6c-82.7,0-167.2-40.2-167.2-164.6c0-124.4,84.4-285.8,167.2-285.8
		C768.4,313,852.7,474.4,852.7,598.8L852.7,598.8z M852.7,598.8"/>
</g>
<path d="M648.1,759.7c-111.7,0-178.4-65.7-178.4-175.9c0-129.7,86.5-297.1,178.4-297.1c91.9,0,178.4,167.4,178.4,297.1
	C826.5,693.9,759.8,759.7,648.1,759.7L648.1,759.7z M648.1,309.2c-71.4,0-155.9,148.8-155.9,274.6c0,138.4,109,153.4,155.9,153.4
	c46.9,0,155.9-15,155.9-153.4C804,458.1,719.5,309.2,648.1,309.2L648.1,309.2z M648.1,309.2"/>
<g>
	<path d="M453.3,924.8c4.3,0,9.3,5.9,9.3,10.9c0,0.3,0,1.6-0.3,2.7c-9.1,30.9-24.5,46.7-38.9,59.2v46.1c0,28-14.1,37.9-27.7,37.9
		c-14.9,0-25.6-13.6-25.6-30.7c0-26.9,15.5-40.5,33.1-56v-33.9c-6.4,10.7-14.7,18.4-26.1,18.4c-17.9,0-28.3-15.2-28.3-38.4
		c0-28.3,9.6-60,9.6-60c1.9-4.5,0-9.9,14.1-9.9c13.1,0,5.3,10.7,4.3,14.7c-4.8,19.7-7.7,31.5-7.7,53.9c0,14.4,4.5,22.1,12.3,22.1
		c10.7,0,18.7-17.3,21.9-36V883c0-5.1-1.1-6.7-1.1-8.5c0-2.7,3.2-4.5,6.9-4.5c8.8,0,14.4,5.3,14.4,11.7v93.6
		c9.6-10.7,18.1-24,23.5-42.4C448.5,927.2,450.6,924.8,453.3,924.8z M403.2,1043.8v-28.5c-8.5,8.8-14.4,18.9-14.4,34.9
		c0,8.3,2.7,14.7,6.9,14.7C404.2,1064.8,403.2,1048.8,403.2,1043.8z"/>
	<path d="M560.7,935.5c-3.2,14.4-14.1,26.4-32.3,26.4c-4.8,0-9.1-0.5-13.1-1.9c-6.7,11.5-16.8,19.2-32,19.2
		c-26.9,0-38.9-22.9-38.9-49.6c0-39.2,21.3-62.9,27.2-62.9c6.9,0,12.3,14.1,5.3,18.7c-4.3,6.4-12.3,16.3-12.3,42.7
		c0,22.4,8.8,33.6,19.2,33.6c7.5,0,12.3-4,15.7-10.1c-12.5-10.7-19.2-28.3-19.2-47.5c0-16.8,7.2-31.2,21.6-31.2
		c12.5,0,22.7,18.9,22.7,44.8c0,9.9-1.1,19.7-3.7,28.8c1.9,0.5,3.5,0.5,5.3,0.5c11.5,0,17.6-8.8,19.2-19.2
		C546.6,921.6,564.2,920.6,560.7,935.5z M504.7,934.2c0.5-4.3,0.8-8.3,0.8-12.3c0-18.1-0.8-31.5-6.4-31.5c-2.9,0-4.5,4.3-4.5,12.5
		C494.6,915,498.6,926.2,504.7,934.2z"/>
	<path d="M597,960.3c-6.4,11.2-14.9,19.2-26.7,19.2c-17.9,0-28.3-15.2-28.3-38.4c0-28.3,9.6-60,9.6-60c1.9-4.5,0-9.9,14.1-9.9
		c13.1,0,5.3,10.7,4.3,14.7c-4.8,19.7-7.7,31.5-7.7,53.9c0,14.4,4.5,22.1,12.3,22.1c10.7,0,18.7-17.3,21.9-36V883
		c0-7.7-2.7-8.3-2.7-10.1c0-1.9,4.8-2.9,8.5-2.9c8.8,0,14.4,5.3,14.4,11.7v67.7c0,2.4,0,12.3,6.9,12.3c10.7,0,15.5-17.1,17.9-28.8
		c1.1-5.6,3.7-8,6.4-8c4.3,0,9.3,5.9,9.3,10.9c0,0.3,0,0.8-0.3,1.9c-4.8,17.6-15.2,41.6-38.1,41.6C606.9,979.2,598.9,971,597,960.3z
		"/>
	<path d="M642.6,883c0-5.1-1.1-6.7-1.1-8.5c0-2.7,3.2-4.5,6.9-4.5c8.8,0,14.4,5.3,14.4,11.7v12c7.2-14.9,16.8-26.4,29.9-26.4
		c17.9,0,22.1,14.7,22.1,26.9v55.2c0,2.4,0,12.3,6.9,12.3c10.7,0,15.5-17.1,17.9-28.8c1.1-5.6,3.7-8,6.4-8c4.3,0,9.3,5.9,9.3,10.9
		c0,0.3,0,0.8-0.3,1.9c-4.5,17.6-15.2,41.6-38.1,41.6c-14.1,0-22.4-11.5-22.4-25.1V900c0-8.3-0.5-15.2-5.6-15.2
		c-7.7,0-24.3,22.9-26.1,44v38.9c0,5.1,0.3,11.5-7.5,11.5c-5.3,0-12.8-1.9-12.8-11.7V883z"/>
	<path d="M737,827.2c0-9.3,7.2-16.3,16-16.3c9.3,0,16.3,6.9,16.3,16.3c0,8.8-6.9,16.3-16.3,16.3C744.2,843.5,737,836,737,827.2z
		 M759.1,949.4c0,2.4,0,12.3,6.9,12.3c10.7,0,15.5-17.1,17.9-28.8c3.2-16.3,17.6-3.7,15.5,4.8c-4.8,17.6-15.2,41.6-38.1,41.6
		c-14.1,0-22.4-11.5-22.4-25.1V883c0-5.1-1.1-6.7-1.1-8.5c0-2.7,3.2-4.5,6.9-4.5c8.8,0,14.4,5.3,14.4,11.7V949.4z"/>
	<path d="M785,847.2v-45.1c0-7.7-2.7-8.3-2.7-10.1c0-1.9,4.8-2.9,8.5-2.9c8.8,0,14.4,5.3,14.4,11.7v46.7c16.3,0,34.9-0.3,53.1-1.1
		c7.5-8,5.1,17.6-1.9,17.9c-21.3,0.5-37.1,0.5-51.2,0.5v84.5c0,8.5,3.5,12.3,9.1,12.3c10.7,0,15.5-17.1,17.9-28.8
		c1.1-5.6,3.7-8,6.4-8c4.3,0,9.3,5.9,9.3,10.9c0,0.3,0,0.8-0.3,1.9c-4.5,17.6-15.2,41.6-38.1,41.6c-14.4,0-24.5-8.5-24.5-29.6v-84.8
		c-11.7,0-18.4-0.5-18.4-0.5c-8.5,0-13.3-17.9-5.6-17.9C761,846.4,770.6,847,785,847.2z"/>
	<path d="M855.1,945.1c3.7,9.1,10.9,16.5,24.8,16.5c20.8,0,29.3-17.3,32.5-33.6c2.4-12,17.3-6.7,16.3,2.7
		c-1.9,16.3-12.5,48.5-51.7,48.5c-24.3,0-47.2-19.5-47.2-52.8c0-33.9,20.3-59.2,40.8-59.2c14.9,0,24,10.9,24,26.9
		C894.6,913.9,881,937.4,855.1,945.1z M851.9,930.4c13.3-6.1,21.9-20,21.9-36c0-5.9-2.1-9.3-5.6-9.3c-13.1,0-17.1,29.3-16.5,40.5
		C851.6,927.2,851.9,928.8,851.9,930.4z"/>
	<path d="M907.9,936.3c0-40.8,24.8-64.5,53.9-68.5v-60.3c0-7.7-2.7-8.3-2.7-10.1c0-1.9,4.8-2.9,8.5-2.9c8.8,0,14.4,5.3,14.4,11.7
		v143.2c0,5.9,2.7,12.3,9.1,12.3c10.7,0,15.5-17.1,17.9-28.8c1.1-5.6,3.7-8,6.4-8c4.3,0,9.3,5.9,9.3,10.9c0,0.3,0,0.8-0.3,1.9
		c-4.5,17.6-15.2,41.6-38.1,41.6c-9.1,0-16.3-4.3-20.3-10.4c-5.9,5.9-13.6,10.4-23.7,10.4C921.5,979.2,907.9,964.3,907.9,936.3z
		 M961.8,951.2v-65.9c-17.3,3.2-33.3,15.7-33.3,49.1c0,19.2,8.5,27.2,17.9,27.2C953.2,961.6,958.3,957.1,961.8,951.2z"/>
</g>
<path d="M651.5,637.9l-3.4-0.6c-23-4.2-41.9-11.9-56.4-23c-12.9-9.9-21.9-22.1-26.9-36.3c-4-11.4-5-23.7-3.1-35.5
	c1.8-10.9,6.2-20.8,12.3-27.8c6.9-7.8,25.3-17.4,47.1-9.9c5.9-10.1,14.3-17.6,24.4-21.7c10.3-4.2,21.2-4.1,29.9,0.1
	c23.8,11.5,35,41.2,30.8,81.3c-4.5,42.6-37.7,64.4-51.7,71.8L651.5,637.9z M605.3,522.1c-10,0-16.1,5.8-16.2,5.9
	c-7.3,8.3-11.5,25.9-5.4,43.5c5.6,16,21.3,36.7,64.5,45.5c12.3-7.1,34.9-24.1,38.1-54.5c3.2-30.8-4.1-53.7-19.6-61.2
	c-3.5-1.7-8.7-1.5-13.7,0.5c-3.6,1.5-9.6,4.9-14.3,12.7c0.8,0.6,1.6,1.2,2.4,1.9c18.7,15.4,29.1,43.2,24.7,66
	c-2.7,13.9-10.6,23.6-22.3,27.2c-8.2,2.6-16.1,0.6-21.9-5.5c-14.6-15.4-13.3-56.6-7.6-80.5C610.9,522.5,607.9,522.1,605.3,522.1z
	 M632,535.1c-1.5,8.9-2.3,19.4-2,29c0.7,19.7,5.4,26.1,6.5,26.6c0,0,0.3,0,1-0.2c4.5-1.4,7.4-5.4,8.7-12
	C648.6,566.1,643.9,547.3,632,535.1z"/>
</svg>
